HIERARCHY
ROOT joint_Root
{
	OFFSET 0.0 0.0 0.0
	CHANNELS 6 Xposition Yposition Zposition Zrotation Xrotation Yrotation 
	JOINT Hips
	{
		OFFSET -0.726466 93.3139 -2.00062
		CHANNELS 6 Xposition Yposition Zposition Zrotation Xrotation Yrotation 
		JOINT Spine
		{
			OFFSET 15.7357 0.0 0.0
			CHANNELS 6 Xposition Yposition Zposition Zrotation Xrotation Yrotation 
			JOINT Chest
			{
				OFFSET 8.98455 -0.406207 0.0
				CHANNELS 6 Xposition Yposition Zposition Zrotation Xrotation Yrotation 
				JOINT Neck
				{
					OFFSET 16.3773 0.0 0.0
					CHANNELS 6 Xposition Yposition Zposition Zrotation Xrotation Yrotation 
					JOINT Head
					{
						OFFSET 6.45672 0.0 0.0
						CHANNELS 6 Xposition Yposition Zposition Zrotation Xrotation Yrotation 
						End Site
						{
							OFFSET 0.0 0.0 0.0
						}
					}
				}
				JOINT Shoulder_L
				{
					OFFSET 12.9942 -0.242716 4.98039
					CHANNELS 6 Xposition Yposition Zposition Zrotation Xrotation Yrotation 
					JOINT UpperArm_L
					{
						OFFSET 5.34809 0.0 0.0
						CHANNELS 6 Xposition Yposition Zposition Zrotation Xrotation Yrotation 
						JOINT LowerArm_L
						{
							OFFSET 24.3286 1.87007e-05 0.0
							CHANNELS 6 Xposition Yposition Zposition Zrotation Xrotation Yrotation 
							JOINT Hand_L
							{
								OFFSET 22.2916 0.0 0.0
								CHANNELS 6 Xposition Yposition Zposition Zrotation Xrotation Yrotation 
								End Site
								{
									OFFSET 0.0 0.0 0.0
								}
							}
						}
					}
				}
				JOINT Shoulder_R
				{
					OFFSET 12.9945 -0.242716 -4.98039
					CHANNELS 6 Xposition Yposition Zposition Zrotation Xrotation Yrotation 
					JOINT UpperArm_R
					{
						OFFSET -5.34813 0.0 0.0
						CHANNELS 6 Xposition Yposition Zposition Zrotation Xrotation Yrotation 
						JOINT LowerArm_R
						{
							OFFSET -24.3289 0.000322201 0.0
							CHANNELS 6 Xposition Yposition Zposition Zrotation Xrotation Yrotation 
							JOINT Hand_R
							{
								OFFSET -22.2915 -0.000108084 0.0
								CHANNELS 6 Xposition Yposition Zposition Zrotation Xrotation Yrotation 
								End Site
								{
									OFFSET 0.0 0.0 0.0
								}
							}
						}
					}
				}
			}
		}
		JOINT UpperLeg_L
		{
			OFFSET -2.19248 -6.46944 0.0
			CHANNELS 6 Xposition Yposition Zposition Zrotation Xrotation Yrotation 
			JOINT LowerLeg_L
			{
				OFFSET 39.0811 0.0 -1.23785e-05
				CHANNELS 6 Xposition Yposition Zposition Zrotation Xrotation Yrotation 
				JOINT Foot_L
				{
					OFFSET 40.9854 0.0 -1.26872e-05
					CHANNELS 6 Xposition Yposition Zposition Zrotation Xrotation Yrotation 
					JOINT Toes_L
					{
						OFFSET 11.7543 0.0 0.0
						CHANNELS 6 Xposition Yposition Zposition Zrotation Xrotation Yrotation 
						End Site
						{
							OFFSET 0.0 0.0 0.0
						}
					}
				}
			}
		}
		JOINT UpperLeg_R
		{
			OFFSET -2.19251 6.46944 0.0
			CHANNELS 6 Xposition Yposition Zposition Zrotation Xrotation Yrotation 
			JOINT LowerLeg_R
			{
				OFFSET -39.0811 -0.00228153 -0.0401928
				CHANNELS 6 Xposition Yposition Zposition Zrotation Xrotation Yrotation 
				JOINT Foot_R
				{
					OFFSET -40.9854 0.0 0.0
					CHANNELS 6 Xposition Yposition Zposition Zrotation Xrotation Yrotation 
					JOINT Toes_R
					{
						OFFSET -11.7543 0.0 0.0
						CHANNELS 6 Xposition Yposition Zposition Zrotation Xrotation Yrotation 
						End Site
						{
							OFFSET 0.0 0.0 0.0
						}
					}
				}
			}
		}
	}
}
MOTION
Frames:	9
Frame Time:	0.0333333
0.000000 0.000000 0.000000 0.000000 0.000000 -0.000000 -0.804657 92.357600 -0.561387 88.116700 -0.066563 3.152080 15.735700 0.000005 -0.000001 87.000800 85.659700 -86.810600 8.984550 -0.406207 -0.000000 0.903577 -0.465413 0.383680 16.377300 -0.000001 -0.000001 3.652380 -2.714270 0.535410 6.456720 -0.000001 -0.000000 3.783050 -1.988810 0.272663 12.994200 -0.242716 4.980390 -89.992400 -0.025261 -73.154700 5.348090 -0.000007 -0.000001 -66.694900 39.562200 -16.405100 24.328600 0.000019 0.000005 1.667020 3.798900 -23.713900 22.291600 -0.000001 0.000005 2.218710 5.442910 -4.384970 12.994500 -0.242716 -4.980390 87.745700 6.863730 -71.768300 -5.348130 -0.000001 -0.000004 -65.594700 40.043200 -16.348800 -24.328900 0.000322 -0.000009 3.607890 10.652000 -18.840000 -22.291500 -0.000108 -0.000004 6.584270 5.372400 -2.059780 -2.192480 -6.469440 -0.000000 -175.623000 -5.968110 -3.348410 39.081100 -0.000007 -0.000012 -0.105271 0.255205 22.416000 40.985400 -0.000006 -0.000013 -0.266963 3.615370 -66.163600 11.754300 -0.000000 0.000003 -0.000038 -0.000449 -16.595000 -2.192510 6.469440 -0.000001 179.875000 13.442500 179.008000 -39.081100 -0.002282 -0.040193 -0.034188 0.107541 19.228900 -40.985400 0.000008 0.000006 3.350530 6.949660 -65.601800 -11.754300 -0.000006 -0.000006 -0.007040 -0.080010 -19.830300
0.000000 0.000000 0.000000 0.000000 0.000000 -0.000000 -0.811899 92.355100 -0.609399 88.147600 -0.001012 3.197170 15.735700 0.000005 -0.000001 87.961800 85.697300 -87.801700 8.984550 -0.406207 -0.000000 0.834434 -0.315624 0.322134 16.377300 -0.000001 -0.000001 3.515480 -2.806370 0.546069 6.456720 -0.000001 -0.000000 3.946560 -2.120170 0.326438 12.994200 -0.242716 4.980390 -90.072300 0.239700 -73.213800 5.348090 -0.000007 -0.000001 -64.763100 39.135400 -18.104400 24.328600 0.000019 0.000005 1.866110 4.048530 -24.771000 22.291600 -0.000001 0.000005 -0.608287 5.414520 -3.407510 12.994500 -0.242716 -4.980390 87.756800 6.864690 -71.854600 -5.348130 -0.000001 -0.000004 -65.604700 38.885800 -15.902500 -24.328900 0.000322 -0.000009 4.661260 12.123200 -21.220300 -22.291500 -0.000108 -0.000004 3.826830 5.340930 -1.098610 -2.192480 -6.469440 -0.000000 -175.650000 -5.902080 -3.362080 39.081100 -0.000007 -0.000012 -0.106362 0.257526 22.441400 40.985400 -0.000006 -0.000013 -0.270815 3.618750 -66.134700 11.754300 -0.000000 0.000003 -0.000031 -0.000375 -16.592200 -2.192510 6.469440 -0.000001 179.856000 13.421700 178.976000 -39.081100 -0.002282 -0.040193 -0.036101 0.112513 19.309900 -40.985400 0.000008 0.000006 3.318250 6.834340 -65.599800 -11.754300 -0.000006 -0.000006 -0.007092 -0.080455 -19.848500
0.000000 0.000000 0.000000 0.000000 0.000000 -0.000000 -0.817578 92.354100 -0.678448 88.160200 0.116152 3.381890 15.735700 0.000005 -0.000001 88.634000 85.675400 -88.496600 8.984550 -0.406207 -0.000000 0.881013 -0.214369 0.276229 16.377300 -0.000001 -0.000001 3.341120 -2.828870 0.463360 6.456720 -0.000001 -0.000000 4.111960 -2.234250 0.548084 12.994200 -0.242716 4.980390 -90.140200 0.467341 -73.298200 5.348090 -0.000007 -0.000001 -62.304800 36.928300 -20.678300 24.328600 0.000019 0.000005 1.970820 3.911350 -26.767600 22.291600 -0.000001 0.000005 -1.960300 5.392290 -2.687630 12.994500 -0.242716 -4.980390 87.792800 6.809960 -71.993500 -5.348130 -0.000001 -0.000004 -64.589000 36.992200 -16.595500 -24.328900 0.000322 -0.000009 5.810010 12.813900 -24.649500 -22.291500 -0.000108 -0.000004 -1.386850 5.309150 -0.173981 -2.192480 -6.469440 -0.000000 -175.642000 -5.834390 -3.255490 39.081100 -0.000007 -0.000012 -0.105441 0.254837 22.477800 40.985400 -0.000006 -0.000013 -0.265398 3.668920 -66.099600 11.754300 -0.000000 0.000003 -0.000036 -0.000421 -16.594000 -2.192510 6.469440 -0.000001 179.825000 13.421300 179.102000 -39.081100 -0.002282 -0.040193 -0.033259 0.104012 19.376800 -40.985400 0.000008 0.000006 3.411510 6.749700 -65.619900 -11.754300 -0.000006 -0.000006 -0.007073 -0.080289 -19.841700
0.000000 0.000000 0.000000 0.000000 0.000000 -0.000000 -0.830542 92.348600 -0.855946 88.171300 0.167701 3.474030 15.735700 0.000005 -0.000001 88.726700 85.706400 -88.603400 8.984550 -0.406207 -0.000000 0.819305 -0.198232 0.247713 16.377300 -0.000001 -0.000001 3.420040 -2.735940 0.362075 6.456720 -0.000001 -0.000000 4.200240 -2.273150 0.720398 12.994200 -0.242716 4.980390 -90.135900 0.455181 -73.373800 5.348090 -0.000007 -0.000001 -59.229100 33.312500 -24.419700 24.328600 0.000019 0.000005 2.216320 3.886640 -29.721600 22.291600 -0.000001 0.000005 -1.610910 5.391590 -2.665630 12.994500 -0.242716 -4.980390 87.786000 6.789740 -71.891900 -5.348130 -0.000001 -0.000004 -61.390600 34.991300 -19.994800 -24.328900 0.000322 -0.000009 6.325420 11.931900 -28.203300 -22.291500 -0.000108 -0.000004 -6.668780 5.254690 1.325930 -2.192480 -6.469440 -0.000000 -175.635000 -5.921160 -3.383210 39.081100 -0.000007 -0.000012 -0.107291 0.257433 22.625100 40.985400 -0.000006 -0.000013 -0.237477 3.793170 -66.028100 11.754300 -0.000000 0.000003 -0.000033 -0.000392 -16.592900 -2.192510 6.469440 -0.000001 179.839000 13.372200 178.966000 -39.081100 -0.002282 -0.040193 -0.036458 0.112029 19.549300 -40.985400 0.000008 0.000006 3.302650 6.643950 -65.548300 -11.754300 -0.000006 -0.000006 -0.007270 -0.081969 -19.910300
0.000000 0.000000 0.000000 0.000000 0.000000 -0.000000 -0.833562 92.354400 -1.063870 88.218400 0.117437 3.759730 15.735700 0.000005 -0.000001 88.506400 85.700800 -88.392300 8.984550 -0.406207 -0.000000 0.829639 -0.230940 0.229719 16.377300 -0.000001 -0.000001 3.823620 -2.604780 0.215575 6.456720 -0.000001 -0.000000 4.268350 -2.092720 0.878959 12.994200 -0.242716 4.980390 -90.093600 0.317254 -73.570200 5.348090 -0.000007 -0.000001 -55.477000 28.567500 -29.241500 24.328600 0.000019 0.000005 3.268610 4.907580 -33.719300 22.291600 -0.000001 0.000005 -0.532551 5.412950 -3.361700 12.994500 -0.242716 -4.980390 87.818100 6.646260 -71.778900 -5.348130 -0.000001 -0.000004 -57.363000 31.250600 -25.134800 -24.328900 0.000322 -0.000009 7.994100 12.500900 -32.975800 -22.291500 -0.000108 -0.000004 -9.291040 5.181680 3.175740 -2.192480 -6.469440 -0.000000 -175.673000 -5.903700 -3.239250 39.081100 -0.000007 -0.000012 -0.106232 0.254611 22.647600 40.985400 -0.000006 -0.000013 -0.241439 3.735120 -65.906100 11.754300 -0.000000 0.000003 -0.000032 -0.000385 -16.592600 -2.192510 6.469440 -0.000001 179.756000 13.341900 179.048000 -39.081100 -0.002282 -0.040193 -0.037840 0.115124 19.674100 -40.985400 0.000008 0.000006 3.253460 6.629530 -65.456200 -11.754300 -0.000006 -0.000006 -0.007093 -0.080458 -19.848600
0.000000 0.000000 0.000000 0.000000 0.000000 -0.000000 -0.824825 92.348900 -1.283750 88.147100 -0.000216 4.015760 15.735700 0.000005 -0.000001 88.165400 85.728000 -88.026600 8.984550 -0.406207 -0.000000 0.774050 -0.281905 0.279280 16.377300 -0.000001 -0.000001 4.244780 -2.492570 0.242117 6.456720 -0.000001 -0.000000 4.647510 -1.872310 0.914617 12.994200 -0.242716 4.980390 -90.054200 0.185942 -73.755900 5.348090 -0.000007 -0.000001 -51.746300 22.445300 -34.369100 24.328600 0.000019 0.000005 4.502270 5.530460 -39.247100 22.291600 -0.000001 0.000005 1.564960 5.434010 -4.073980 12.994500 -0.242716 -4.980390 87.838700 6.520600 -71.617000 -5.348130 -0.000001 -0.000004 -52.994300 26.194200 -31.371200 -24.328900 0.000322 -0.000009 11.022600 13.830800 -39.172900 -22.291500 -0.000108 -0.000004 -7.494210 5.159770 3.709570 -2.192480 -6.469440 -0.000000 -175.584000 -6.010770 -3.225310 39.081100 -0.000007 -0.000012 -0.105524 0.250357 22.855200 40.985400 -0.000006 -0.000013 -0.218773 3.761780 -65.864500 11.754300 -0.000000 0.000003 -0.000036 -0.000423 -16.594000 -2.192510 6.469440 -0.000001 179.767000 13.263000 179.107000 -39.081100 -0.002282 -0.040193 -0.042374 0.127230 19.756100 -40.985400 0.000008 0.000006 3.068420 6.750060 -65.311600 -11.754300 -0.000006 -0.000006 -0.007227 -0.081597 -19.895100
0.000000 0.000000 0.000000 0.000000 0.000000 -0.000000 -0.793114 92.352400 -1.456650 88.171600 -0.232696 4.347180 15.735700 0.000005 -0.000001 87.993200 85.737100 -87.852400 8.984550 -0.406207 -0.000000 0.754995 -0.307061 0.283376 16.377300 -0.000001 -0.000001 4.658520 -2.385540 0.323447 6.456720 -0.000001 -0.000000 5.074320 -1.633400 0.934728 12.994200 -0.242716 4.980390 -89.917000 -0.288617 -73.944300 5.348090 -0.000007 -0.000001 -50.111200 14.713900 -38.912200 24.328600 0.000019 0.000005 5.967260 5.763710 -46.142900 22.291600 -0.000001 0.000005 4.428340 5.454590 -4.796960 12.994500 -0.242716 -4.980390 87.931700 6.255520 -71.662600 -5.348130 -0.000001 -0.000004 -49.528500 19.703400 -37.701300 -24.328900 0.000322 -0.000009 14.745000 14.475200 -46.473100 -22.291500 -0.000108 -0.000004 -2.412550 5.163900 3.606830 -2.192480 -6.469440 -0.000000 -175.601000 -6.100420 -2.992180 39.081100 -0.000007 -0.000012 -0.104748 0.248172 22.883700 40.985400 -0.000006 -0.000013 -0.221151 3.636370 -65.781000 11.754300 -0.000000 0.000003 -0.000032 -0.000388 -16.592700 -2.192510 6.469440 -0.000001 179.625000 13.237400 179.288000 -39.081100 -0.002282 -0.040193 -0.048960 0.145165 19.806600 -40.985400 0.000008 0.000006 2.811550 6.983520 -65.162700 -11.754300 -0.000006 -0.000006 -0.007233 -0.081655 -19.897400
0.000000 0.000000 0.000000 0.000000 0.000000 -0.000000 -0.768072 92.358800 -1.638140 88.079900 -0.538705 4.413100 15.735700 0.000005 -0.000001 87.653500 85.799900 -87.442300 8.984550 -0.406207 -0.000000 0.627795 -0.356960 0.424026 16.377300 -0.000001 -0.000001 4.925800 -2.247990 0.336863 6.456720 -0.000001 -0.000000 5.278850 -1.383400 0.928588 12.994200 -0.242716 4.980390 -89.660800 -1.193790 -74.137000 5.348090 -0.000007 -0.000001 -50.447500 6.319300 -43.136300 24.328600 0.000019 0.000005 6.827860 5.011100 -53.887000 22.291600 -0.000001 0.000005 7.464390 5.477530 -5.648100 12.994500 -0.242716 -4.980390 88.162600 5.635820 -71.910600 -5.348130 -0.000001 -0.000004 -48.017200 11.941800 -43.780700 -24.328900 0.000322 -0.000009 18.913300 14.003200 -54.768900 -22.291500 -0.000108 -0.000004 2.291770 5.145760 4.041080 -2.192480 -6.469440 -0.000000 -175.527000 -6.273780 -3.069290 39.081100 -0.000007 -0.000012 -0.103385 0.243625 22.994600 40.985400 -0.000006 -0.000013 -0.221866 3.497760 -65.730200 11.754300 -0.000000 0.000003 -0.000036 -0.000430 -16.594300 -2.192510 6.469440 -0.000001 179.703000 13.051900 179.220000 -39.081100 -0.002282 -0.040193 -0.051210 0.151694 19.772700 -40.985400 0.000008 0.000006 2.696980 7.167780 -64.979500 -11.754300 -0.000006 -0.000006 -0.007128 -0.080755 -19.860700
0.000000 0.000000 0.000000 0.000000 0.000000 -0.000000 -0.719649 92.387600 -1.763440 88.095200 -0.804610 4.368170 15.735700 0.000005 -0.000001 87.502300 85.850800 -87.261600 8.984550 -0.406207 -0.000000 0.525315 -0.376721 0.482771 16.377300 -0.000001 -0.000001 4.906170 -2.134650 0.393261 6.456720 -0.000001 -0.000000 5.361080 -1.183950 0.942578 12.994200 -0.242716 4.980390 -89.353000 -2.290250 -74.220000 5.348090 -0.000007 -0.000001 -52.546300 -2.098540 -47.874000 24.328600 0.000019 0.000005 8.673740 4.689820 -61.803800 22.291600 -0.000001 0.000005 10.570200 5.500430 -6.542760 12.994500 -0.242716 -4.980390 88.440300 4.885160 -72.269100 -5.348130 -0.000001 -0.000004 -48.487400 3.569690 -49.882400 -24.328900 0.000322 -0.000009 21.932800 12.078900 -62.539400 -22.291500 -0.000108 -0.000004 6.449280 5.156330 3.795150 -2.192480 -6.469440 -0.000000 -175.597000 -6.374990 -3.082020 39.081100 -0.000007 -0.000012 -0.101429 0.240896 22.833500 40.985400 -0.000006 -0.000013 -0.220759 3.315550 -65.589300 11.754300 -0.000000 0.000003 -0.000030 -0.000366 -16.591800 -2.192510 6.469440 -0.000001 179.670000 12.998600 179.121000 -39.081100 -0.002282 -0.040193 -0.050182 0.149827 19.651900 -40.985400 0.000008 0.000006 2.683400 7.370350 -64.802700 -11.754300 -0.000006 -0.000006 -0.007265 -0.081921 -19.908300
